<?xml version="1.0" encoding="UTF-8"?>
<svg xmlns="http://www.w3.org/2000/svg" width="80" height="38" viewBox="0 0 80 38" fill="none">
  <g clip-path="url(#clip0_1_954)">
    <mask id="mask0_1_954" style="mask-type:alpha" maskUnits="userSpaceOnUse" x="0" y="0" width="80" height="38">
      <path d="M14.7308 15.5448C14.7308 16.3032 14.189 16.6821 13.6477 16.6821C13.0522 16.6821 12.5109 16.3032 12.5109 15.5453V1.19111C12.5109 0.487485 13.106 0 13.702 0C14.0809 0 14.4599 0.216608 14.7308 0.595556L38.2919 33.3104V21.3399C38.2919 20.7986 38.8332 20.2568 39.4297 20.2568C39.9715 20.2568 40.5127 20.7986 40.5127 21.3399V36.2891C40.5127 36.9394 39.8087 37.4264 39.2131 37.4264C38.9422 37.4264 38.6713 37.3184 38.4543 37.0475L14.7303 4.55018L14.7308 15.5448ZM59.142 20.582C59.7918 20.582 60.4959 21.1237 60.4959 21.7736C60.4959 21.9902 60.3883 22.2611 60.225 22.4777L52.7504 31.4685V36.2887C52.7504 37.0475 52.3715 37.4269 51.6136 37.4269C51.0723 37.4269 50.5305 37.048 50.5305 36.2887V1.19158C50.5305 0.596023 51.0723 0.0538012 51.6136 0.0538012C52.3715 0.0538012 52.7504 0.596023 52.7504 1.19111V28.1104L58.3294 20.9609C58.546 20.6905 58.8168 20.582 59.142 20.582ZM79.7244 36.451C79.7244 37.0475 79.1827 37.4269 78.6405 37.4269C78.3153 37.4269 77.9911 37.3184 77.774 37.048L62.2835 17.9818C62.1212 17.7656 62.0131 17.4952 62.0131 17.2781C62.0131 17.0072 62.1212 16.7368 62.2835 16.5193L75.1743 0.433684C75.4451 0.107602 75.8241 0 76.1492 0C76.7448 0 77.2866 0.433216 77.2866 1.13684C77.2866 1.40819 77.2323 1.6786 77.0157 1.94947L64.5039 17.2239L79.4536 35.7469C79.6159 35.9092 79.7244 36.1801 79.7244 36.451ZM14.7308 21.3399V36.2891C14.7308 37.047 14.189 37.4264 13.6477 37.4264C13.0522 37.4264 12.5109 37.0475 12.5109 36.2896V21.3394C12.5109 20.7981 13.0522 20.2564 13.6477 20.2564C14.189 20.2564 14.7308 20.7986 14.7308 21.3399ZM40.5132 1.19158V15.5448C40.5132 16.3032 39.9715 16.6821 39.4297 16.6821C38.8332 16.6821 38.2919 16.3032 38.2919 15.5453V1.19111C38.2919 0.595088 38.8332 0.0538012 39.4297 0.0538012C39.9715 0.0538012 40.5127 0.595088 40.5127 1.19064L40.5132 1.19158ZM0 36.2887V1.19205C0 0.596023 0.541754 0.0538012 1.08304 0.0538012C1.67906 0.0538012 2.22129 0.596491 2.22129 1.19158V36.2887C2.22129 37.048 1.6786 37.4269 1.08304 37.4269C0.541754 37.4269 0 37.047 0 36.2887Z" fill="white"></path>
    </mask>
    <g mask="url(#mask0_1_954)">
      <path d="M14.7308 15.5448C14.7308 16.3032 14.189 16.6821 13.6477 16.6821C13.0522 16.6821 12.5109 16.3032 12.5109 15.5453V1.19111C12.5109 0.487485 13.106 0 13.702 0C14.0809 0 14.4599 0.216608 14.7308 0.595556L38.2919 33.3104V21.3399C38.2919 20.7986 38.8332 20.2568 39.4297 20.2568C39.9715 20.2568 40.5127 20.7986 40.5127 21.3399V36.2891C40.5127 36.9394 39.8087 37.4264 39.2131 37.4264C38.9422 37.4264 38.6713 37.3184 38.4543 37.0475L14.7303 4.55018L14.7308 15.5448ZM59.142 20.582C59.7918 20.582 60.4959 21.1237 60.4959 21.7736C60.4959 21.9902 60.3883 22.2611 60.225 22.4777L52.7504 31.4685V36.2887C52.7504 37.0475 52.3715 37.4269 51.6136 37.4269C51.0723 37.4269 50.5305 37.048 50.5305 36.2887V1.19158C50.5305 0.596023 51.0723 0.0538012 51.6136 0.0538012C52.3715 0.0538012 52.7504 0.596023 52.7504 1.19111V28.1104L58.3294 20.9609C58.546 20.6905 58.8168 20.582 59.142 20.582ZM79.7244 36.451C79.7244 37.0475 79.1827 37.4269 78.6405 37.4269C78.3153 37.4269 77.9911 37.3184 77.774 37.048L62.2835 17.9818C62.1212 17.7656 62.0131 17.4952 62.0131 17.2781C62.0131 17.0072 62.1212 16.7368 62.2835 16.5193L75.1743 0.433684C75.4451 0.107602 75.8241 0 76.1492 0C76.7448 0 77.2866 0.433216 77.2866 1.13684C77.2866 1.40819 77.2323 1.6786 77.0157 1.94947L64.5039 17.2239L79.4536 35.7469C79.6159 35.9092 79.7244 36.1801 79.7244 36.451ZM14.7308 21.3399V36.2891C14.7308 37.047 14.189 37.4264 13.6477 37.4264C13.0522 37.4264 12.5109 37.0475 12.5109 36.2896V21.3394C12.5109 20.7981 13.0522 20.2564 13.6477 20.2564C14.189 20.2564 14.7308 20.7986 14.7308 21.3399ZM40.5132 1.19158V15.5448C40.5132 16.3032 39.9715 16.6821 39.4297 16.6821C38.8332 16.6821 38.2919 16.3032 38.2919 15.5453V1.19111C38.2919 0.595088 38.8332 0.0538012 39.4297 0.0538012C39.9715 0.0538012 40.5127 0.595088 40.5127 1.19064L40.5132 1.19158ZM0 36.2887V1.19205C0 0.596023 0.541754 0.0538012 1.08304 0.0538012C1.67906 0.0538012 2.22129 0.596491 2.22129 1.19158V36.2887C2.22129 37.048 1.6786 37.4269 1.08304 37.4269C0.541754 37.4269 0 37.047 0 36.2887Z" fill="black"></path>
    </g>
  </g>
  <defs>
    <clipPath id="clip0_1_954">
      <rect width="80" height="37.4269" fill="white"></rect>
    </clipPath>
  </defs>
</svg>
